<?xml version="1.0" encoding="UTF-8"?>
<!DOCTYPE svg PUBLIC "-//W3C//DTD SVG 1.1//EN" "http://www.w3.org/Graphics/SVG/1.1/DTD/svg11.dtd">
<!-- Creator: CorelDRAW 2021 (64-Bit) -->
<svg xmlns="http://www.w3.org/2000/svg" xml:space="preserve" width="111.022mm" height="80.9858mm" version="1.1" style="shape-rendering:geometricPrecision; text-rendering:geometricPrecision; image-rendering:optimizeQuality; fill-rule:evenodd; clip-rule:evenodd"
viewBox="0 0 1137.14 829.49"
 xmlns:xlink="http://www.w3.org/1999/xlink"
 xmlns:xodm="http://www.corel.com/coreldraw/odm/2003">
 <defs>
  <style type="text/css">
   <![CDATA[
    .fil0 {fill:white}
   ]]>
  </style>
 </defs>
 <g id="Capa_x0020_1">
  <metadata id="CorelCorpID_0Corel-Layer"/>
  <g id="_2478230153328">
   <path class="fil0" d="M972.18 782.76l-920.38 0c6.84,-33.27 19.67,-74.75 28.11,-108.54l81.23 -325.62c18.86,-75.48 10.47,-72.18 61.81,-72.18l815.25 0c20.86,0 46.2,-3.66 52.35,15.29 3.72,11.46 -6.83,43.59 -9.94,56.05l-81.34 325.53c-8.82,35.31 -20.61,74.5 -27.09,109.47zm-924.86 -166.86c-3.62,-19.21 -1.02,-469.65 -1.03,-522.22 -0.01,-52.7 7.23,-47.41 57.05,-47.41 34.96,0 69.93,0.06 104.9,-0 37.72,-0.06 31.62,0.64 55.66,48.72 4.46,8.93 12.42,27.31 17.25,34.34 7.95,11.56 25.87,9 43.03,9 71.4,-0.01 616.76,-2.35 627.33,1.45 15.14,5.43 15.46,18.15 15.4,36.76 -0.07,17.95 -0.01,35.91 -0.01,53.86l-734.73 0c-43.07,0 -87.62,-4.02 -103.42,58.17 -5.61,22.07 -11.03,44.22 -16.55,66.3 -10.91,43.69 -21.87,87.53 -32.76,131.1l-32.11 129.94zm965.58 -386.09c0,-27.43 3.59,-74.77 -6.29,-97.21 -9.74,-22.13 -32.06,-39.92 -64.06,-40.33 -207.87,-2.71 -421.93,4.32 -629.65,-0.09 -2.92,-9.68 -26.81,-56.32 -32.18,-63.67 -15.1,-20.67 -34.6,-27.98 -68.8,-27.93 -31.9,0.05 -63.8,0 -95.7,0 -32.63,0 -61.27,-4.45 -85.31,11.4 -19.31,12.73 -30.67,31.89 -30.66,65.12l0.03 677.58c0,89.41 -11.71,73.77 119.62,73.77l772.92 0c31.56,0 64.43,0.91 95.81,0.07 25.72,-0.69 26.12,-28.2 34.77,-62.79l96.43 -385.92c12.04,-48.17 40,-110.11 -18.5,-141.25 -27.35,-14.56 -57.35,-4.92 -88.43,-8.75z"/>
   <polygon class="fil0" points="782.65,736.66 828.67,736.73 828.77,697.59 828.14,690.68 782.73,690.88 "/>
   <polygon class="fil0" points="874.69,736.65 920.71,736.73 920.82,697.59 920.18,690.67 874.77,690.9 "/>
   <polygon class="fil0" points="690.56,736.45 736.62,736.75 736.51,690.69 691,690.73 "/>
  </g>
 </g>
</svg>
