<?xml version="1.0" encoding="UTF-8"?>
<!DOCTYPE svg PUBLIC "-//W3C//DTD SVG 1.1//EN" "http://www.w3.org/Graphics/SVG/1.1/DTD/svg11.dtd">
<!-- Creator: CorelDRAW 2021 (64-Bit) -->
<svg xmlns="http://www.w3.org/2000/svg" xml:space="preserve" width="196.61mm" height="68.8099mm" version="1.1" style="shape-rendering:geometricPrecision; text-rendering:geometricPrecision; image-rendering:optimizeQuality; fill-rule:evenodd; clip-rule:evenodd"
viewBox="0 0 3695.28 1293.28"
 xmlns:xlink="http://www.w3.org/1999/xlink"
 xmlns:xodm="http://www.corel.com/coreldraw/odm/2003">
 <defs>
  <style type="text/css">
   <![CDATA[
    .fil1 {fill:#595959}
    .fil0 {fill:#FEFEFE}
   ]]>
  </style>
 </defs>
 <g id="Capa_x0020_1">
  <metadata id="CorelCorpID_0Corel-Layer"/>
  <g id="_2476587190704">
   <path class="fil0" d="M522.56 28.39c-146.73,0 -293.46,0 -440.84,0.3l100.56 223.01c85.22,4.73 183.31,0.44 269.96,0.44 42.97,0 90.49,-5.13 124.53,13.67 88.88,49.11 84.37,226.55 -11.66,267.39 -41.66,17.72 -203.01,5.23 -262.22,9.03 7,23.22 31.83,67.06 43.73,91.05 14.85,29.95 29.87,58.29 44.9,88.74 30.38,61.57 59.69,120.21 89.78,181.56 30,61.14 59.46,120.12 89.8,181.62 9.4,19.06 83.56,173.92 92.09,176.46l265.73 0 -290.89 -506.45c4.3,-3.52 61.47,-25.25 75.44,-33.42 25.54,-14.94 44.55,-29.89 63.39,-47.13 119.06,-108.96 133.84,-360.04 42.74,-501.11 -56.92,-88.14 -146.95,-145.16 -297.04,-145.15z"/>
   <path class="fil0" d="M2109.66 1261.66c37.03,0 91.82,11.01 83.01,-36.64l-132.42 -356.77c-96.94,-264.76 -205.61,-540.8 -298.74,-802.89 -17.06,-48.03 -28.88,-36.96 -83.8,-36.96 -40.18,0 -80.36,0 -120.54,0 -34.33,0 -92.24,-10.63 -82.7,37.06 4.46,22.26 22.77,66.44 31.49,91.39 10.56,30.21 20.51,59.58 30.99,89.55 105.1,300.81 205.04,614.86 311.49,910.63 44.62,123.99 16.02,104.63 140.67,104.63 40.18,0 80.36,0 120.54,0z"/>
   <path class="fil0" d="M3184.39 1293.28c8.84,-9.5 232.72,-580.65 258.25,-644.84 12.06,-30.32 255.4,-632.03 252.62,-648.43 -16.8,-0.71 -331.58,143.59 -376.77,162.59 -35.51,14.93 -36.21,11.09 -42.81,27.48l-211.02 532.34c-13.25,33.45 -25.59,64.78 -38.87,98.43 -21.25,53.84 -28.81,42.91 -6.74,96.49l121.57 286.87c7.21,16.63 29.79,84.01 43.77,89.07z"/>
   <path class="fil0" d="M2355.27 1118.96c9.44,23.87 61.48,166.11 72.49,174 14.21,-6.34 35.01,-71.03 40.9,-85.03 12.68,-30.12 24.43,-57.53 36.84,-87.04 24.94,-59.31 49.13,-115.45 73.72,-174.06 23.5,-55.96 33.05,-57.7 20.55,-88.93 -12.14,-30.34 -23.32,-58.91 -35.13,-88.88 -23.15,-58.74 -46.99,-118.02 -70.46,-177.32 -47.04,-118.83 -94.35,-237.26 -141.76,-357.11 -15.71,-39.7 -13.17,-50.62 -33.43,-60.42 -76.97,-37.23 -196.54,-85.28 -278.92,-122.79 -149.67,-68.14 -134.99,-66.99 -109.09,-1.46l424.29 1069.06z"/>
   <path class="fil0" d="M1473.82 795.38c8.68,-26.2 -22.56,-101.67 -31.58,-129.43 -9.33,-28.75 -75.6,-237.18 -82.62,-245.64 -15.99,-19.25 -41.79,-9.95 -51.27,12.4 -8.23,19.42 -14.67,39.89 -21.69,58.68 -59.65,159.49 -119.86,318.39 -178.22,478.04 -117.45,321.31 -136.52,292.23 10.11,292.23 54.74,0 109.47,0.04 164.2,0.15 36.14,0.07 34.89,-9.56 45.31,-39.3 7.19,-20.55 13.94,-39.83 20.94,-59.42l124.82 -367.71z"/>
   <path class="fil0" d="M0.21 1261.66l231.18 0 0 -469.62c0,-20.85 -44.54,-116.53 -55.38,-142.28l-116.32 -278.83c-17.01,-41.1 -39.02,-102.98 -58.94,-138.11l-0.76 13.43 0.21 1015.4z"/>
   <path class="fil0" d="M2809.47 771.23c8.25,-8.34 182.04,-444.19 181.82,-461.66 -27.24,3.8 -167.33,74.9 -182.3,75.67 -21.09,1.08 -148.01,-70.8 -184.69,-75.64 -0.11,19.26 130.18,338.28 157.19,406.64 5.88,14.87 13.03,49.6 27.98,54.99z"/>
   <path class="fil0" d="M2886.65 1112.43l4.13 8.11 -9.14 -3.45c-21.27,1.27 -14.4,5.33 -32.59,-2.75 -14.15,-6.29 -23.47,-3.06 -38.97,-8.41 -4.03,-28.6 18.67,-28.23 16.95,-59.37 -1.53,-27.57 -18.03,-47.53 -27.61,-50.2 -47.27,3.95 -32.58,47.92 -42.19,84.04 -16.19,-3.35 -6.75,-0.83 -17.17,-11.52 -4.81,-4.93 -12.19,-9.2 -14.41,-12.19 -6.34,-8.52 -6.21,-30.14 -11.16,-42.56 -9.29,-23.34 -6.45,-16.55 2.51,-40.12 5.11,-13.44 5.54,-29.19 13.69,-39.75 19.28,-6.22 24.57,5.71 44.69,-5.04 -5.21,-12.38 -2.53,-3.12 -15.56,-13.3 2.55,-24.13 27,-30.96 1.95,-52.14 -14.73,7.21 -7.87,6.24 -17.02,14.2 -9.56,8.31 -15.04,5.19 -23.84,13 -0.56,0.5 -47.08,76.86 -48.9,95.5 -1.36,13.9 3,19.67 3.22,33.29 0.18,10.8 -2.04,21.49 -1.85,33.4 0.53,32.27 13.07,34.07 17.81,51.49 5.24,19.28 -0.76,35.2 9.57,63.97 19.92,55.51 23.02,28.71 33.16,93.39 3.69,23.49 7.21,21.81 65.49,15.94 71.84,-7.23 55.76,-26.71 39.03,-63.03 -5.08,-11.03 -4.86,-14.97 -3.41,-27.91 4.04,-36.07 18.66,-21.47 31.49,-20.54 15.68,1.14 61.47,-7.12 77.44,-22.88 -2.33,-19.63 -24.52,-44.62 -38.79,-55.62 -22.38,-17.26 -23,-36.2 -63.33,-31.7 -8.13,13.16 -14.79,29.54 8.52,32.44 27.07,3.38 30.25,-6.73 36.26,23.69z"/>
   <polygon class="fil1" points="2881.64,1117.09 2890.78,1120.54 2886.65,1112.43 "/>
  </g>
 </g>
</svg>
