<?xml version="1.0" encoding="UTF-8"?>
<!DOCTYPE svg PUBLIC "-//W3C//DTD SVG 1.1//EN" "http://www.w3.org/Graphics/SVG/1.1/DTD/svg11.dtd">
<!-- Creator: CorelDRAW 2021 (64-Bit) -->
<svg xmlns="http://www.w3.org/2000/svg" xml:space="preserve" width="65.4805mm" height="85.052mm" version="1.1" style="shape-rendering:geometricPrecision; text-rendering:geometricPrecision; image-rendering:optimizeQuality; fill-rule:evenodd; clip-rule:evenodd"
viewBox="0 0 319.35 414.81"
 xmlns:xlink="http://www.w3.org/1999/xlink"
 xmlns:xodm="http://www.corel.com/coreldraw/odm/2003">
 <defs>
  <style type="text/css">
   <![CDATA[
    .fil0 {fill:white}
   ]]>
  </style>
 </defs>
 <g id="Capa_x0020_1">
  <metadata id="CorelCorpID_0Corel-Layer"/>
  <g id="_2476663285376">
   <path class="fil0" d="M15.98 48l16.11 0 0 324.58c0,12.85 9.45,10.2 20.95,10.2l156.41 0c19.98,0 42.08,-0.89 61.8,0.09l0 15.78 -255.11 0.11 -0.17 -350.76zm32.05 -31.97l255.11 0.2 0.01 350.37 -255.11 0.19 0 -336.99 0 -13.77zm239.16 366.95c6.95,-0.85 15.74,0.11 22.95,-0.2 8.93,-0.38 8.85,-6.16 8.83,-14.29l-0 -321.01c0,-50.78 5.06,-47.44 -21.79,-47.44l-251.62 -0c-16.77,-0.06 -13.47,4.94 -13.47,31.97 -7.48,0 -15.9,-0.37 -23.26,0.01 -8.91,0.45 -8.5,6.4 -8.49,14.79l0 320.33c0,51.37 -4.9,47.61 22.1,47.61l250.94 0c17.11,0.06 13.81,-5.05 13.81,-31.76z"/>
   <path class="fil0" d="M86.75 80.05c-9.55,2.09 -8.05,12.78 -1.84,15.11 3.73,1.4 115.9,0.61 128.63,0.61 8.57,0 46.74,1.06 51.98,-0.41 7.19,-2.02 7.46,-12.02 0.68,-14.89 -3.84,-1.62 -135.54,-0.69 -153.99,-0.69 -5.58,0 -21.18,-0.68 -25.46,0.26z"/>
   <path class="fil0" d="M86.88 175.64c-6.28,1.11 -9.54,8.56 -4.64,13.36 3.89,3.81 12.88,2.5 19.09,2.5 15.44,0 126.47,0.8 131.59,-0.22 5.89,-1.17 8.65,-8.41 4.36,-13.15 -3.61,-3.99 -12.81,-2.62 -18.98,-2.62l-131.41 0.13z"/>
   <path class="fil0" d="M85.75 128.22c-4.46,1.37 -7.72,6.19 -4.62,11.56 2.48,4.3 7.9,3.78 14.08,3.77 16.38,-0.02 103.27,0.77 107.08,-0.56 4.04,-1.41 6.67,-6.71 3.99,-11.39 -2.73,-4.76 -8.05,-3.87 -13.82,-3.86 -17.04,0.02 -102.08,-0.93 -106.71,0.49z"/>
   <path class="fil0" d="M84.88 224.04c-8.22,3.36 -5.61,14.46 2.86,15.19 8.68,0.75 81.05,0.14 82.93,-0.67 7.39,-3.19 6.29,-14.17 -2.65,-15.18 -7.63,-0.86 -81.07,-0.18 -83.13,0.66z"/>
  </g>
 </g>
</svg>
